<?xml version="1.0" encoding="UTF-8"?>
<svg width="26px" height="23px" viewBox="0 0 26 23" version="1.1" xmlns="http://www.w3.org/2000/svg" xmlns:xlink="http://www.w3.org/1999/xlink">
    <title>wechat icon</title>
    <g id="app" stroke="none" stroke-width="1" fill="none" fill-rule="evenodd">
        <g id="login" transform="translate(-131.000000, -437.000000)">
            <g id="wechat-icon" transform="translate(131.000000, 437.000000)">
                <path d="M9.06164877,15.4645075 C9.01737319,15.1560726 8.99367273,14.8417577 8.99367273,14.5228991 C8.99367273,10.5311532 12.564889,7.27307602 17,7.16482981 C16.675486,3.15891832 13.0011337,0 8.51315245,0 C3.81160664,0 0,3.46574955 0,7.74107381 C0,10.1906454 1.2527385,12.3729424 3.20555207,13.7913686 L3.19878051,13.7886959 C3.19878051,13.7886959 3.7699355,14.1837277 3.6040323,15.03179 C3.43891042,15.8801195 3.1245538,17 3.1245538,17 L5.3070795,15.6181904 C5.3070795,15.6181904 5.86859804,15.2260986 6.7257212,15.3097555 C6.84187949,15.3324739 6.95934,15.3522522 7.07758185,15.3704269 C7.08878097,15.3730996 7.09945919,15.3747032 7.1111792,15.3776433 L7.10388675,15.3747032 C7.56252968,15.4441946 8.03263218,15.4821476 8.51315245,15.4821476 C8.69780767,15.4821476 8.88011889,15.4751985 9.06164877,15.4645075" id="Fill-1" fill="#2DC100"></path>
                <path d="M7,6 C7,6.55237595 6.55231719,7 5.99986871,7 C5.44742024,7 5,6.55237595 5,6 C5,5.44762405 5.44742024,5 5.99986871,5 C6.55231719,5 7,5.44762405 7,6" id="Fill-3" fill="#326B1F"></path>
                <path d="M13,6 C13,6.55237595 12.552521,7 12,7 C11.447479,7 11,6.55237595 11,6 C11,5.44762405 11.447479,5 12,5 C12.552521,5 13,5.44762405 13,6" id="Fill-5" fill="#326B1F"></path>
                <path d="M20.0904938,21.0624123 C20.910714,21.0624123 21.3888257,21.364033 21.3888257,21.364033 L22.3996604,21.9877279 C22.3996604,21.9877279 22.4114754,22 22.4214525,22 C22.4487581,22 22.4631986,21.9064594 22.1780644,21.2025869 C21.7897464,20.2445457 22.56612,19.6091242 22.56612,19.6091242 L22.5648072,19.6096696 C24.0613677,18.3881876 25,16.6327334 25,14.6820165 C25,10.9916628 21.6421908,8 17.5001313,8 C13.3578092,8 10,10.9916628 10,14.6820165 C10,18.3723703 13.3578092,21.364033 17.5001313,21.364033 C18.2360715,21.364033 18.9462814,21.268038 19.6176332,21.0921381 L19.6108067,21.0959561 C19.7812046,21.0725027 19.9416254,21.0624123 20.0904938,21.0624123" id="Fill-7" fill="#FFFFFF"></path>
                <path d="M20.0904938,21.0624123 C20.910714,21.0624123 21.3888257,21.364033 21.3888257,21.364033 L22.3996604,21.9877279 C22.3996604,21.9877279 22.4114754,22 22.4214525,22 C22.4487581,22 22.4631986,21.9064594 22.1780644,21.2025869 C21.7897464,20.2445457 22.56612,19.6091242 22.56612,19.6091242 L22.5648072,19.6096696 C24.0613677,18.3881876 25,16.6327334 25,14.6820165 C25,10.9916628 21.6421908,8 17.5001313,8 C13.3578092,8 10,10.9916628 10,14.6820165 C10,18.3723703 13.3578092,21.364033 17.5001313,21.364033 C18.2360715,21.364033 18.9462814,21.268038 19.6176332,21.0921381 L19.6108067,21.0959561 C19.7812046,21.0725027 19.9416254,21.0624123 20.0904938,21.0624123 Z" id="Stroke-9" stroke="#2DC100"></path>
                <path d="M18,12.9998454 C18,13.552188 18.4475719,14 19,14 C19.5527374,14 20,13.552188 20,12.9998454 C20,12.4475027 19.5527374,12 19,12 C18.4475719,12 18,12.4475027 18,12.9998454" id="Fill-11" fill="#2DC100"></path>
                <path d="M13,12.9998454 C13,13.552188 13.447812,14 13.9998454,14 C14.5524973,14 15,13.552188 15,12.9998454 C15,12.4475027 14.5524973,12 13.9998454,12 C13.447812,12 13,12.4475027 13,12.9998454" id="Fill-13" fill="#2DC100"></path>
            </g>
        </g>
    </g>
</svg>