<?xml version="1.0" encoding="UTF-8"?>
<svg width="27px" height="28px" viewBox="0 0 27 28" version="1.1" xmlns="http://www.w3.org/2000/svg" xmlns:xlink="http://www.w3.org/1999/xlink">
    <title>facebook icon</title>
    <defs>
        <polygon id="path-1" points="0 0.0822416058 26.9176204 0.0822416058 26.9176204 27 0 27"></polygon>
        <polygon id="path-3" points="0.189796721 0.00802 11.9338623 0.00802 11.9338623 23 0.189796721 23"></polygon>
    </defs>
    <g id="app" stroke="none" stroke-width="1" fill="none" fill-rule="evenodd">
        <g id="login" transform="translate(-99.000000, -498.000000)">
            <g id="facebook-icon" transform="translate(99.000000, 498.000000)">
                <g id="Group-3">
                    <mask id="mask-2" fill="white">
                        <use xlink:href="#path-1"></use>
                    </mask>
                    <g id="Clip-2"></g>
                    <path d="M26.9176204,22.400008 C26.9176204,24.9405701 24.8583285,27.0000591 22.3179635,27.0000591 L4.59985401,27.0000591 C2.05929197,27.0000591 0,24.9405701 0,22.400008 L0,4.6822927 C0,2.14153358 2.05929197,0.0822416058 4.59985401,0.0822416058 L22.3179635,0.0822416058 C24.8583285,0.0822416058 26.9176204,2.14153358 26.9176204,4.6822927 L26.9176204,22.400008 Z" id="Fill-1" fill="#395398" mask="url(#mask-2)"></path>
                </g>
                <g id="Group-6" transform="translate(11.000000, 4.000000)">
                    <mask id="mask-4" fill="white">
                        <use xlink:href="#path-3"></use>
                    </mask>
                    <g id="Clip-5"></g>
                    <path d="M7.81294426,23.00002 L7.81294426,12.51242 L11.2756328,12.51242 L11.7939934,8.42502 L7.81294426,8.42502 L7.81294426,5.81502 C7.81294426,4.63202 8.13596066,3.82562 9.8053377,3.82562 L11.9338623,3.82462 L11.9338623,0.16902 C11.5654033,0.11922 10.302059,0.00802 8.83156721,0.00802 C5.76271475,0.00802 3.66114098,1.91282 3.66114098,5.41082 L3.66114098,8.42502 L0.189796721,8.42502 L0.189796721,12.51242 L3.66114098,12.51242 L3.66114098,23.00002 L7.81294426,23.00002 Z" id="Fill-4" fill="#FFFFFF" mask="url(#mask-4)"></path>
                </g>
            </g>
        </g>
    </g>
</svg>