<svg width="20" height="20" viewBox="0 0 20 20" fill="none" xmlns="http://www.w3.org/2000/svg">
<path d="M18.2812 5.25H1.21875C0.545653 5.25 0 5.74075 0 6.34615L0.75 18.4038C0.75 19.0093 1.29565 19.5 1.96875 19.5H17.5312C18.2044 19.5 18.75 19.0093 18.75 18.4038L19.5 6.34615C19.5 5.74075 18.9544 5.25 18.2812 5.25Z" fill="#008EFA"/>
<mask id="path-2-inside-1_969_431" fill="white">
<path d="M6 6V3.375C6 1.51104 7.67893 0 9.75 0C11.8211 0 13.5 1.51104 13.5 3.375V6"/>
</mask>
<path d="M4.8 6C4.8 6.66274 5.33726 7.2 6 7.2C6.66274 7.2 7.2 6.66274 7.2 6H4.8ZM12.3 6C12.3 6.66274 12.8373 7.2 13.5 7.2C14.1627 7.2 14.7 6.66274 14.7 6H12.3ZM7.2 6V3.375H4.8V6H7.2ZM7.2 3.375C7.2 2.28958 8.21962 1.2 9.75 1.2V-1.2C7.13824 -1.2 4.8 0.7325 4.8 3.375H7.2ZM9.75 1.2C11.2804 1.2 12.3 2.28958 12.3 3.375H14.7C14.7 0.7325 12.3618 -1.2 9.75 -1.2V1.2ZM12.3 3.375V6H14.7V3.375H12.3Z" fill="#008EFA" mask="url(#path-2-inside-1_969_431)"/>
<path d="M9.72202 9.04663C9.73469 9.02551 9.76531 9.02551 9.77798 9.04663V9.04663C10.3532 10.0053 11.1195 10.8353 12.0292 11.4851L12.6949 11.9606C12.7219 11.9799 12.7219 12.0201 12.6949 12.0394L12.0292 12.5149C11.1195 13.1647 10.3532 13.9947 9.77798 14.9534V14.9534C9.76531 14.9745 9.73469 14.9745 9.72202 14.9534V14.9534C9.14683 13.9947 8.38053 13.1647 7.4708 12.5149L6.80511 12.0394C6.7781 12.0201 6.7781 11.9799 6.80511 11.9606L7.4708 11.4851C8.38053 10.8353 9.14683 10.0053 9.72202 9.04663V9.04663Z" fill="white"/>
</svg>
