<svg xmlns="http://www.w3.org/2000/svg" width="40" height="40" viewBox="0 0 40 40">
  <g id="组_491" data-name="组 491" transform="translate(2475 4573)">
    <rect id="矩形_915" data-name="矩形 915" width="40" height="40" rx="5" transform="translate(-2475 -4573)" fill="#2693ca"/>
    <path id="减去_4" data-name="减去 4" d="M22.414,29.272c-.212,0-.429,0-.64-.006s-.426-.006-.635-.006H8.055l-.651,0-.567,0c-1.827,0-3.12-.07-4.393-1.012A6.316,6.316,0,0,1,.326,24.643a12.152,12.152,0,0,1-.085-5.207c.776-3.818,2.439-6.908,4.682-8.7l.189-.15A20.418,20.418,0,0,1,7.158,9.093l.5-.255.008,0c.3-.155.619-.316.915-.474L7.843,7.58a7.211,7.211,0,0,1-1.37-2.814A2.839,2.839,0,0,1,8.4,1.042l.02-.006A3.387,3.387,0,0,1,9.383.856,1.7,1.7,0,0,1,9.67.879a4.427,4.427,0,0,1,.648.173,3.412,3.412,0,0,0,.673.169A4.057,4.057,0,0,1,12.753.18C13,.114,13.3.049,13.569,0h.155a4.6,4.6,0,0,1,2.7.652l.371.3,0,0,.375.3c.186-.041.357-.1.537-.154A5.186,5.186,0,0,1,18.5.9a2.732,2.732,0,0,1,.482-.043,2.834,2.834,0,0,1,2.181,1.067,3.08,3.08,0,0,1,.65,2.571,6.137,6.137,0,0,1-2.284,3.822.086.086,0,0,1,.016.024.086.086,0,0,0,.017.025,8.94,8.94,0,0,1,2.43,1.409l.006,0,.337.245a14.623,14.623,0,0,1,5.546,8.994,14.27,14.27,0,0,1,.229,2.993c0,3.935-1.259,6.249-3.85,7.074A6.552,6.552,0,0,1,22.414,29.272ZM9.522,20.381a4.658,4.658,0,0,0,1.24,3.142,4.21,4.21,0,0,0,2.687,1v1.512h1.138V24.519a5.3,5.3,0,0,0,2.6-.773A3.06,3.06,0,0,0,18.583,21a3.173,3.173,0,0,0-1.792-2.885c-.107-.07-.9-.365-2.2-.841V13.494a2.169,2.169,0,0,1,1.033.36,2.094,2.094,0,0,1,.775,1.512h1.964a3.975,3.975,0,0,0-1.309-2.713,4.331,4.331,0,0,0-2.463-.841V10.4H13.449v1.408a4.7,4.7,0,0,0-2.463.79,2.923,2.923,0,0,0-1.309,2.593,3.081,3.081,0,0,0,1.792,2.885l1.981.721v4.019a2.171,2.171,0,0,1-1.24-.515,2.929,2.929,0,0,1-.689-1.923Zm5.065,2.438h0v-3.6a.883.883,0,0,1,.189.069c1.189.412,1.792,1.013,1.792,1.786a1.487,1.487,0,0,1-.724,1.322,3.1,3.1,0,0,1-1.256.429Zm-1.138-5.976h0c-1.165-.444-1.755-1-1.755-1.648a1.471,1.471,0,0,1,.689-1.374,2.47,2.47,0,0,1,1.068-.344v3.367Z" transform="translate(-2469.053 -4567.636)" fill="#fff" stroke="rgba(0,0,0,0)" stroke-miterlimit="10" stroke-width="1"/>
  </g>
</svg>
