<svg xmlns="http://www.w3.org/2000/svg" width="40" height="40" viewBox="0 0 40 40">
  <g id="组_488" data-name="组 488" transform="translate(2322 4577)">
    <rect id="矩形_918" data-name="矩形 918" width="40" height="40" rx="5" transform="translate(-2322 -4577)" fill="#cb2b37"/>
    <g id="组_487" data-name="组 487" transform="translate(-2322 -4577)">
      <path id="路径_325" data-name="路径 325" d="M11.429,0H28.571A11.425,11.425,0,0,1,40,11.429V28.571A11.425,11.425,0,0,1,28.571,40H11.429A11.425,11.425,0,0,1,0,28.571V11.429A11.425,11.425,0,0,1,11.429,0Z" fill="#cb2b37"/>
      <path id="路径_326" data-name="路径 326" d="M7.143,20A12.857,12.857,0,1,1,20,32.857,12.84,12.84,0,0,1,7.143,20ZM20,31.229A11.229,11.229,0,1,0,8.771,20,11.231,11.231,0,0,0,20,31.229ZM12.571,13.486h7v2.085H14.6v1.915h4.943v5.6H14.6v2.343h4.943v1.828H12.571V21h5.058V19.314H12.571Zm14.858,0v5.828H22.343V21h5.086v6.257H20.4V25.429h5V23.086h-5v-5.6h5V15.571h-5V13.486Z" fill="#fff"/>
    </g>
  </g>
</svg>
