<svg xmlns="http://www.w3.org/2000/svg" width="40.003" height="40.002" viewBox="0 0 40.003 40.002">
  <g id="组_493" data-name="组 493" transform="translate(2285 4573)">
    <rect id="矩形_918" data-name="矩形 918" width="40" height="40" rx="5" transform="translate(-2285 -4573)" fill="#fc831b"/>
    <g id="组_492" data-name="组 492" transform="translate(-2287.994 -4573.229)">
      <path id="路径_332" data-name="路径 332" d="M37.315,40.231H8.676a5.682,5.682,0,0,1-5.682-5.682V5.911A5.676,5.676,0,0,1,8.665.229H37.315A5.675,5.675,0,0,1,43,5.9V34.538a5.677,5.677,0,0,1-5.671,5.682h-.011" fill="#ff8300"/>
      <path id="路径_333" data-name="路径 333" d="M21.37,8.006H14.635a.369.369,0,0,0-.352.293L9.926,33.006a.241.241,0,0,0,.184.288.271.271,0,0,0,.057.006h6.741a.369.369,0,0,0,.346-.294L21.612,8.288A.241.241,0,0,0,21.435,8a.235.235,0,0,0-.064-.007m5.612-.7L23.529,26.813a9.957,9.957,0,0,0,2.452.3h.225L29.573,7.908a9.858,9.858,0,0,0-2.591-.622m-7.4,17.506a9.915,9.915,0,0,0,2.8,1.635L25.762,7.234A9.893,9.893,0,0,0,22.6,7.81Zm8.208,2.159a9.891,9.891,0,0,0,2.539-.835l2.793-15.836a10.013,10.013,0,0,0-2.107-1.663Z" transform="translate(0.051 0.052)" fill="#fff"/>
      <path id="路径_334" data-name="路径 334" d="M21.55,8.24a9.942,9.942,0,0,0-2.786,15.819Zm13.061,4.1L32.435,24.692a9.934,9.934,0,0,0,2.176-12.336" transform="translate(0.096 0.059)" fill="#fff"/>
    </g>
  </g>
</svg>
