<svg xmlns="http://www.w3.org/2000/svg" width="40.002" height="40.002" viewBox="0 0 40.002 40.002">
  <g id="组_490" data-name="组 490" transform="translate(2376 4573)">
    <rect id="矩形_920" data-name="矩形 920" width="40" height="40" rx="5" transform="translate(-2376 -4573)" fill="#fff"/>
    <path id="路径_324" data-name="路径 324" d="M35,0H5A5.014,5.014,0,0,0,0,5V35a5.014,5.014,0,0,0,5,5H35a5.015,5.015,0,0,0,5-5V5A5.015,5.015,0,0,0,35,0ZM20,30.752A14.532,14.532,0,0,1,15.251,30c-1,.5-2.5,1.75-3,2-1,.5-.751-.5-.751-.5l.5-3a10.486,10.486,0,0,1-4.751-8.75C7.25,13.5,13,8.5,20,8.5a13.893,13.893,0,0,1,10.5,4.751L18,19a1.986,1.986,0,0,1-2-.249l-2-1.5s-1.5-1.25-.75.75l2,4.5S15.5,23.75,17,23c1.251-.5,10.5-6.249,14.5-8.5a11.37,11.37,0,0,1,1.249,5c0,6-5.75,11.25-12.75,11.25Z" transform="translate(-2376 -4573)" fill="#15ba1f"/>
  </g>
</svg>
