<svg xmlns="http://www.w3.org/2000/svg" width="40" height="40" viewBox="0 0 40 40">
  <g id="组_489" data-name="组 489" transform="translate(2424 4573)">
    <rect id="矩形_919" data-name="矩形 919" width="40" height="40" rx="5" transform="translate(-2424 -4573)" fill="#fff"/>
    <path id="减去_3" data-name="减去 3" d="M35,40H5a5.006,5.006,0,0,1-5-5V5A5.006,5.006,0,0,1,5,0H35a5.006,5.006,0,0,1,5,5V27.441c-1.629-.163-7.063-1.99-12.694-3.94a34.055,34.055,0,0,0,3.327-8.579H22.492V11.947h9.629V10.633H22.492V5.994H18.114v4.639H9.36v1.314h8.754V15.01H10.587v1.312H25.731a6.07,6.07,0,0,1-.131,1.139,22.959,22.959,0,0,1-1.852,4.232l-.293.583a30.669,30.669,0,0,0-10.626-2.493,8.228,8.228,0,0,0-4.48,1.062c-.083.047-.155.088-.215.118-2.686,2.138-3.808,4.643-3.16,7.053.683,2.541,3.311,4.635,6.392,5.093a12.673,12.673,0,0,0,1.853.137c4.312,0,8.6-2.248,12.073-6.33.441.165,1.089.486,2.382,1.127.78.387,1.749.867,3.046,1.5,3.453,1.683,9.222,4.438,9.279,4.465V35A5.005,5.005,0,0,1,35,40ZM12.189,30.559a10.155,10.155,0,0,1-3.7-.667,2.886,2.886,0,0,1-1.618-1.2,4.314,4.314,0,0,1-.717-2.056,4.007,4.007,0,0,1,.389-2.146,3.436,3.436,0,0,1,1.683-1.6,14.336,14.336,0,0,1,4.337-.675A21.271,21.271,0,0,1,22.054,24.9c-.261.348-.435.61-.437.613C18.333,29.684,14.678,30.559,12.189,30.559Z" transform="translate(-2424 -4573)" fill="#219fe8"/>
  </g>
</svg>
