<svg fill="none" height="20" viewBox="0 0 20 20" width="20" xmlns="http://www.w3.org/2000/svg"><path clip-rule="evenodd" d="m17 2.8v1.35c-2.4498 0-2.3085 3.6 0 3.6v9.45c0 .4774-.1976.9352-.5492 1.2728s-.8285.5272-1.3258.5272h-10.25c-.49728 0-.97417-.1896-1.3258-.5272s-.5492-.7954-.5492-1.2728v-9.45c.49728 0 .97417-.18964 1.3258-.52721.35163-.33756.5492-.7954.5492-1.27279s-.19757-.93523-.5492-1.27279c-.35163-.33757-.82852-.52721-1.3258-.52721v-1.35c0-.47739.19757-.93523.5492-1.27279.35163-.33757.82852-.52721 1.3258-.52721h10.25c.4973 0 .9742.18964 1.3258.52721.3516.33756.5492.7954.5492 1.27279zm-7.56504 7.09192c0 .99408-.80589 1.79998-1.8 1.79998s-1.8-.8059-1.8-1.79998c0-.99411.80589-1.8 1.8-1.8s1.8.80589 1.8 1.8zm3.25784 6.04818c.7456 0 1.35-.6044 1.35-1.35s-.6044-1.35-1.35-1.35-1.35.6044-1.35 1.35.6044 1.35 1.35 1.35zm1.1519-6.3451c.2733-.27337.2733-.71658 0-.98995-.2734-.27337-.7166-.27337-.99 0l-7.19997 7.19995c-.27336.2734-.27336.7166 0 .99.27337.2734.71658.2734.98995 0z" fill="#ef3a3a" fill-rule="evenodd"/></svg>