<svg width="20" height="20" viewBox="0 0 20 20" fill="none" xmlns="http://www.w3.org/2000/svg">
<g opacity="0.6">
<mask id="path-1-inside-1_969_391" fill="white">
<rect x="0.25" y="0.25" width="19.5" height="19.5" rx="1.5"/>
</mask>
<rect x="0.25" y="0.25" width="19.5" height="19.5" rx="1.5" stroke="black" stroke-width="3.2" mask="url(#path-1-inside-1_969_391)"/>
<path d="M10.9095 5.31663C10.9319 5.31663 10.9432 5.33205 10.9432 5.36289V9.56057C10.9432 9.5837 10.9319 9.59526 10.9095 9.59526H10.3485C10.326 9.59526 10.3148 9.5837 10.3148 9.56057V5.36289C10.3148 5.33205 10.326 5.31663 10.3485 5.31663H10.9095ZM14.2307 5.00441C14.2532 5.00441 14.2644 5.01597 14.2644 5.0391V5.60573C14.2644 5.62886 14.2532 5.64042 14.2307 5.64042H6.99359C6.97115 5.64042 6.95993 5.62886 6.95993 5.60573V5.0391C6.95993 5.01597 6.97115 5.00441 6.99359 5.00441H14.2307ZM13.1423 8.86674C13.1648 8.86674 13.176 8.8783 13.176 8.90143V9.37555C13.176 9.40639 13.1648 9.42181 13.1423 9.42181H11.5042C11.4742 9.42181 11.4593 9.40639 11.4593 9.37555V8.90143C11.4593 8.8783 11.4742 8.86674 11.5042 8.86674H13.1423ZM13.1423 7.64097C13.1648 7.64097 13.176 7.65253 13.176 7.67566V8.14978C13.176 8.18062 13.1648 8.19604 13.1423 8.19604H11.5042C11.4742 8.19604 11.4593 8.18062 11.4593 8.14978V7.67566C11.4593 7.65253 11.4742 7.64097 11.5042 7.64097H13.1423ZM9.74257 8.86674C9.76501 8.86674 9.77623 8.8783 9.77623 8.90143V9.37555C9.77623 9.40639 9.76501 9.42181 9.74257 9.42181H8.11562C8.0857 9.42181 8.07074 9.40639 8.07074 9.37555V8.90143C8.07074 8.8783 8.0857 8.86674 8.11562 8.86674H9.74257ZM9.74257 7.64097C9.76501 7.64097 9.77623 7.65253 9.77623 7.67566V8.14978C9.77623 8.18062 9.76501 8.19604 9.74257 8.19604H8.11562C8.0857 8.19604 8.07074 8.18062 8.07074 8.14978V7.67566C8.07074 7.65253 8.0857 7.64097 8.11562 7.64097H9.74257ZM14.2868 6.35738C14.3018 6.35738 14.3093 6.36123 14.3093 6.36894C14.3167 6.37665 14.3205 6.38436 14.3205 6.39207V9.56057C14.3205 9.5837 14.3093 9.59526 14.2868 9.59526H13.737C13.7146 9.59526 13.7034 9.5837 13.7034 9.56057V6.9587H7.55461V9.56057C7.55461 9.5837 7.54338 9.59526 7.52094 9.59526H6.95993C6.93749 9.59526 6.92627 9.5837 6.92627 9.56057V6.39207C6.92627 6.38436 6.93001 6.37665 6.93749 6.36894C6.94497 6.36123 6.95245 6.35738 6.95993 6.35738H14.2868ZM14.4663 10.1156C14.4888 10.1156 14.5 10.1311 14.5 10.1619V10.7285C14.5 10.7517 14.4888 10.7632 14.4663 10.7632H6.74674C6.7243 10.7632 6.71308 10.7517 6.71308 10.7285V10.1619C6.71308 10.1311 6.7243 10.1156 6.74674 10.1156H14.4663ZM11.9418 11.9774C11.9717 11.9774 11.9866 11.989 11.9866 12.0121V14.9378C11.9866 14.9609 11.9717 14.9725 11.9418 14.9725H11.3807C11.3508 14.9725 11.3359 14.9609 11.3359 14.9378V12.0121C11.3359 11.989 11.3508 11.9774 11.3807 11.9774H11.9418ZM9.83234 11.9774C9.85478 11.9774 9.866 11.989 9.866 12.0121V14.9378C9.866 14.9609 9.85478 14.9725 9.83234 14.9725H9.2601C9.23766 14.9725 9.22644 14.9609 9.22644 14.9378V12.0121C9.22644 11.989 9.23766 11.9774 9.2601 11.9774H9.83234ZM10.9319 10.4394C10.9544 10.4394 10.9656 10.451 10.9656 10.4741V11.9427C10.9656 11.9659 10.9544 11.9774 10.9319 11.9774H10.3036C10.2811 11.9774 10.2699 11.9659 10.2699 11.9427V10.4741C10.2699 10.451 10.2811 10.4394 10.3036 10.4394H10.9319ZM14.1634 11.6652C14.1783 11.6652 14.1858 11.6691 14.1858 11.6768C14.1933 11.6845 14.1971 11.6922 14.1971 11.6999V15.1459C14.1971 15.1536 14.1933 15.1613 14.1858 15.1691C14.1858 15.1768 14.1783 15.1806 14.1634 15.1806H12.9516C12.9292 15.1806 12.9179 15.1691 12.9179 15.1459V14.5909C12.9179 14.5677 12.9292 14.5562 12.9516 14.5562H13.5351V12.2896H7.67803V15.1575C7.67803 15.1883 7.66681 15.2037 7.64437 15.2037H7.03847C7.01603 15.2037 7.00481 15.1883 7.00481 15.1575V11.6999C7.00481 11.6922 7.00855 11.6845 7.01603 11.6768C7.02351 11.6691 7.03099 11.6652 7.03847 11.6652H14.1634ZM5.93888 8.3348C5.96132 8.3348 5.97254 8.34637 5.97254 8.36949V15.2153C5.97254 15.2384 5.96132 15.25 5.93888 15.25H5.31054C5.2881 15.25 5.27688 15.2384 5.27688 15.2153V8.36949C5.27688 8.34637 5.2881 8.3348 5.31054 8.3348H5.93888ZM6.7804 4.93502C6.79536 4.93502 6.80284 4.93888 6.80284 4.94659C6.81032 4.9543 6.81032 4.962 6.80284 4.96971C6.15206 7.15914 5.3816 9.17896 4.49145 11.0292C4.49145 11.0292 4.48771 11.033 4.48023 11.0407C4.47275 11.0485 4.46527 11.0523 4.45779 11.0523C4.45031 11.0446 4.44283 11.0407 4.43535 11.0407L4.0202 10.3469C3.99776 10.3392 3.99402 10.3199 4.00898 10.2891C4.42039 9.42566 4.80188 8.53524 5.15345 7.61784C5.5125 6.70044 5.83789 5.75606 6.12962 4.78469C6.14458 4.76156 6.16328 4.75 6.18572 4.75L6.7804 4.93502Z" fill="black"/>
</g>
</svg>
