<svg width="21" height="20" viewBox="0 0 21 20" fill="none" xmlns="http://www.w3.org/2000/svg">
<g opacity="0.6">
<path d="M2.3 18.6538C2.3 18.6373 2.29949 18.6207 2.29846 18.6042L1.5506 6.58101C1.55455 6.53145 1.57853 6.47289 1.64194 6.41586C1.7133 6.35168 1.8266 6.3 1.96875 6.3H19.0312C19.1734 6.3 19.2867 6.35169 19.3581 6.41586C19.4215 6.47289 19.4454 6.53145 19.4494 6.58101L18.7015 18.6042C18.7005 18.6207 18.7 18.6373 18.7 18.6538C18.7 18.7064 18.6781 18.7712 18.6081 18.8341C18.5367 18.8983 18.4234 18.95 18.2812 18.95H2.71875C2.5766 18.95 2.4633 18.8983 2.39194 18.8341C2.32194 18.7712 2.3 18.7064 2.3 18.6538Z" stroke="black" stroke-width="1.6" stroke-linecap="round" stroke-linejoin="round"/>
<mask id="path-2-inside-1_965_1284" fill="white">
<path d="M6.75 6.25V3.625C6.75 1.76104 8.42893 0.25 10.5 0.25C12.5711 0.25 14.25 1.76104 14.25 3.625V6.25"/>
</mask>
<path d="M5.15 6.25C5.15 7.13366 5.86634 7.85 6.75 7.85C7.63366 7.85 8.35 7.13366 8.35 6.25H5.15ZM12.65 6.25C12.65 7.13366 13.3663 7.85 14.25 7.85C15.1337 7.85 15.85 7.13366 15.85 6.25H12.65ZM8.35 6.25V3.625H5.15V6.25H8.35ZM8.35 3.625C8.35 2.79909 9.14985 1.85 10.5 1.85V-1.35C7.70801 -1.35 5.15 0.722987 5.15 3.625H8.35ZM10.5 1.85C11.8502 1.85 12.65 2.79909 12.65 3.625H15.85C15.85 0.722987 13.292 -1.35 10.5 -1.35V1.85ZM12.65 3.625V6.25H15.85V3.625H12.65Z" fill="black" mask="url(#path-2-inside-1_965_1284)"/>
<path d="M10.472 9.29663C10.4847 9.27551 10.5153 9.27551 10.528 9.29663V9.29663C11.1032 10.2553 11.8695 11.0853 12.7792 11.7351L13.4449 12.2106C13.4719 12.2299 13.4719 12.2701 13.4449 12.2894L12.7792 12.7649C11.8695 13.4147 11.1032 14.2447 10.528 15.2034V15.2034C10.5153 15.2245 10.4847 15.2245 10.472 15.2034V15.2034C9.89683 14.2447 9.13053 13.4147 8.2208 12.7649L7.55511 12.2894C7.5281 12.2701 7.5281 12.2299 7.55511 12.2106L8.2208 11.7351C9.13053 11.0853 9.89683 10.2553 10.472 9.29663V9.29663Z" fill="black"/>
</g>
</svg>
